HIERARCHY
ROOT Hips
{
	OFFSET 0.00000 0.00000 0.00000
	CHANNELS 6 Xposition Yposition Zposition Yrotation Zrotation Xrotation 
	JOINT Lumbar
	{
		OFFSET 0 0 0
		CHANNELS 3 Zrotation Xrotation Yrotation
		JOINT Neck
		{
			OFFSET 0.00 0.2701 0.00
			CHANNELS 3 Zrotation Xrotation Yrotation
			End Site
			{
				OFFSET 0.00 0.1379 0.00
			}
		}
		JOINT RightShoulder
		{
			OFFSET 0.0119 0.2289 0.1181
			CHANNELS 3 Zrotation Xrotation Yrotation
			JOINT RightElbow
			{
				OFFSET 0.00 -0.1475 0.00
				CHANNELS 2 Zrotation Yrotation
				JOINT RightWrist
				{
					OFFSET 0.00 -0.1605 0.00
					CHANNELS 2 Zrotation Xrotation
					End Site
					{
						OFFSET 0.0040 -0.1068 0.0006
					}
				}
			}
		}
		JOINT LeftShoulder
		{
			OFFSET 0.0119 0.2289 -0.1181
			CHANNELS 3 Zrotation Xrotation Yrotation
			JOINT LeftElbow
			{
				OFFSET 0.00 -0.1475 0.00
				CHANNELS 2 Zrotation Yrotation
				JOINT LeftWrist
				{
					OFFSET 0.00 -0.1605 0.00
					CHANNELS 2 Zrotation Xrotation
					End Site
					{
						OFFSET 0.0040 -0.1068 -0.0006
					}
				}
			}
		}
	}
	JOINT RightHip
	{
		OFFSET 0.0316 -0.0424 0.0458
		CHANNELS 3 Zrotation Xrotation Yrotation
		JOINT RightKnee
		{
			OFFSET 0.00 -0.2438 0.00
			CHANNELS 1 Zrotation
			JOINT RightAnkle
			{
				OFFSET 0.00 -0.2449 0.00
				CHANNELS 3 Zrotation Xrotation Yrotation
				End Site
				{
					OFFSET 0.1237 -0.0542 0.0051
				}
			}
		}
	}
	JOINT LeftHip
	{
		OFFSET 0.0316 -0.0424 -0.0458
		CHANNELS 3 Zrotation Xrotation Yrotation
		JOINT LeftKnee
		{
			OFFSET 0.00 -0.2438 0.00
			CHANNELS 1 Zrotation
			JOINT LeftAnkle
			{
				OFFSET 0.00 -0.2449 0.00
				CHANNELS 3 Zrotation Xrotation Yrotation
				End Site
				{
					OFFSET 0.1237 -0.0542 -0.0051
				}
			}
		}
	}
}
MOTION
Frames: 14
Frame Time: 0.02
-0 -1e-05 -0.0002 178.64296 -30.98272 -2.1871 42.99138 2.17939 -5.63439 -7.86293 -1.85787 -0.33733 -20.94387 -9.23776 -0.33474 36.63237 92.16974 8.15417 14.585 -22.88675 11.93051 -6.14243 42.5977 -114.58704 17.54685 -2.41403 32.98933 0.03164 -8.15215 -20.44546 -8.3521 -4.56185 -3.13874 37.11834 7.22465 2.9863 -26.70124 -8.95382 4.81213 3.31698
-1e-05 -1e-05 -0.00015 178.62657 -30.95855 -2.17093 42.95701 2.18449 -5.58381 -7.86802 -1.92676 -0.33784 -20.92889 -9.38088 0.01699 36.3585 91.86921 7.89785 13.07715 -22.78855 11.81721 -5.86265 42.09862 -114.58325 17.54139 -2.45415 32.95783 0.01248 -8.11766 -20.44548 -8.35359 -4.56202 -3.13979 37.07619 7.23787 3.15882 -26.69697 -8.93895 4.79777 3.30954
-1e-05 -1e-05 -9e-05 178.61014 -30.93469 -2.15482 42.92294 2.18959 -5.53334 -7.87308 -1.99547 -0.33834 -20.9139 -9.52346 0.36711 36.08543 91.57293 7.6429 11.57481 -22.6907 11.70422 -5.58349 41.60066 -114.57943 17.53594 -2.49418 32.92674 -0.00668 -8.08358 -20.44555 -8.35506 -4.56216 -3.14081 37.03446 7.25103 3.33072 -26.69275 -8.92415 4.78347 3.30212
-2e-05 -1e-05 -4e-05 178.59379 -30.91065 -2.1387 42.88873 2.19467 -5.4829 -7.87816 -2.06415 -0.33885 -20.89896 -9.66611 0.71764 35.81239 91.27411 7.38751 10.0718 -22.59281 11.59126 -5.30452 41.10305 -114.57569 17.5305 -2.5342 32.89541 -0.0258 -8.04924 -20.44558 -8.35654 -4.56233 -3.14186 36.9925 7.2642 3.50269 -26.6885 -8.90933 4.76916 3.29469
-2e-05 -2e-05 1e-05 178.57751 -30.88616 -2.12251 42.85407 2.19976 -5.43239 -7.88325 -2.13301 -0.33936 -20.88403 -9.80936 1.07009 35.53858 90.96915 7.13041 8.5628 -22.49455 11.47801 -5.02503 40.60447 -114.57188 17.52503 -2.57425 32.8635 -0.04489 -8.0144 -20.44552 -8.35805 -4.56254 -3.14293 36.94997 7.27743 3.67531 -26.68418 -8.89442 4.75478 3.28723
-2e-05 -2e-05 7e-05 178.56077 -30.8636 -2.1066 42.82121 2.20487 -5.38203 -7.88825 -2.20138 -0.33986 -20.86888 -9.95052 1.41532 35.26709 90.69069 6.87991 7.07442 -22.39756 11.36556 -4.74659 40.10788 -114.56797 17.5196 -2.61421 32.83409 -0.0642 -7.98192 -20.44587 -8.35944 -4.56252 -3.14385 36.90988 7.29043 3.8457 -26.68015 -8.87987 4.74064 3.2799
-3e-05 -2e-05 0.00012 178.54495 -30.8373 -2.09013 42.78494 2.20993 -5.33138 -7.89343 -2.27068 -0.34037 -20.85425 -10.09565 1.77442 34.99121 90.36107 6.61676 5.54674 -22.29814 11.25162 -4.46631 39.6078 -114.56459 17.51416 -2.65441 32.79983 -0.08304 -7.94466 -20.44542 -8.36107 -4.56297 -3.14509 36.86505 7.30389 4.02037 -26.67557 -8.86462 4.72605 3.27233
-3e-05 -2e-05 0.00018 178.52836 -30.81423 -2.07418 42.75152 2.21503 -5.28106 -7.89844 -2.33909 -0.34087 -20.83903 -10.23727 2.12125 34.71941 90.07526 6.36462 4.05429 -22.20092 11.13908 -4.18782 39.111 -114.5601 17.50861 -2.69421 32.76978 -0.10233 -7.91196 -20.44564 -8.36248 -4.56298 -3.14603 36.82437 7.31693 4.19111 -26.67145 -8.85001 4.71186 3.26497
-4e-05 -3e-05 0.00023 178.51049 -30.79603 -2.05884 42.72277 2.2202 -5.23084 -7.90328 -2.40654 -0.34138 -20.82352 -10.37407 2.45106 34.45236 89.85684 6.12857 2.60845 -22.10651 11.02807 -3.91097 38.61767 -114.55674 17.5034 -2.73424 32.74594 -0.12213 -7.88427 -20.44696 -8.36359 -4.56249 -3.14662 36.78966 7.32941 4.35705 -26.66809 -8.83619 4.69821 3.25789
-4e-05 -3e-05 0.00028 178.49897 -30.75259 -2.03993 42.67071 2.22504 -5.17915 -7.90922 -2.47992 -0.34188 -20.81095 -10.53699 2.87273 34.15724 89.29233 5.80785 0.90506 -21.99631 10.90774 -3.62301 38.10274 -114.55435 17.49766 -2.77512 32.68958 -0.13889 -7.82608 -20.44281 -8.36637 -4.565 -3.14926 36.72332 7.34498 4.5506 -26.66094 -8.81783 4.6816 3.24924
-4e-05 -3e-05 0.00033 178.4747 -30.76061 -2.02858 42.66556 2.23051 -5.13115 -7.91277 -2.54054 -0.3424 -20.79141 -10.64586 3.1045 33.92184 89.43106 5.66064 -0.26171 -21.91919 10.80741 -3.35962 37.63451 -114.54514 17.49213 -2.81283 32.69977 -0.16211 -7.83326 -20.44966 -8.36566 -4.56108 -3.14754 36.72193 7.35413 4.68592 -26.66141 -8.80906 4.67116 3.24389
-4e-05 3e-05 0.00037 178.40975 -30.92652 -2.03781 42.80936 2.23823 -5.0884 -7.91005 -2.56777 -0.34288 -20.7583 -10.59567 2.7769 33.84763 91.74928 6.03819 0.11645 -21.9351 10.75985 -3.15553 37.28632 -114.5537 17.49381 -2.85271 32.9124 -0.20286 -8.01232 -20.49176 -8.35499 -4.54023 -3.13402 36.91609 7.34456 4.65974 -26.68623 -8.82687 4.67829 3.2479
-3e-05 0.0001 0.0004 178.33299 -31.14144 -2.05462 42.99668 2.24651 -5.05015 -7.90478 -2.58191 -0.34338 -20.71681 -10.4929 2.26499 33.83366 94.73313 6.5821 1.02165 -21.98349 10.7329 -2.97812 36.98658 -114.54701 17.494 -2.88722 33.18888 -0.25006 -8.25781 -20.54412 -8.34092 -4.51285 -3.11612 37.17284 7.32872 4.57542 -26.71815 -8.85426 4.6915 3.25517
-2e-05 0.00016 0.00044 178.26544 -31.32248 -2.06807 43.15069 2.25415 -5.01313 -7.90058 -2.60097 -0.3439 -20.67597 -10.42155 1.86336 33.79415 97.24197 7.01664 1.63636 -22.01594 10.69771 -2.79315 36.66989 -114.52559 17.49113 -2.91729 33.42236 -0.29453 -8.47861 -20.58828 -8.32861 -4.48791 -3.10007 37.38884 7.31649 4.51877 -26.74444 -8.8771 4.70149 3.26074
